<svg width="472" height="326" viewBox="0 0 472 326" fill="none" xmlns="http://www.w3.org/2000/svg">
<rect width="472" height="326" fill="white"/>
<circle cx="56.5" cy="77.5" r="22.5" fill="#5EB8A9"/>
<circle cx="118.5" cy="77.5" r="22.5" fill="#6DB37F"/>
<circle cx="180.5" cy="77.5" r="22.5" fill="#E58F34"/>
<circle cx="242.5" cy="77.5" r="22.5" fill="#F1454C"/>
<path d="M35.05 43.12C36.03 43.12 36.93 42.7 37.58 42.04L36.87 41.36C36.41 41.86 35.76 42.19 35.05 42.19C33.68 42.19 32.52 40.99 32.52 39.56C32.52 38.14 33.68 36.94 35.05 36.94C35.76 36.94 36.41 37.27 36.87 37.77L37.58 37.09C36.93 36.42 36.03 36.01 35.05 36.01C33.12 36.01 31.48 37.63 31.48 39.56C31.48 41.49 33.12 43.12 35.05 43.12ZM41.7492 43.12C43.6792 43.12 45.2992 41.49 45.2992 39.56C45.2992 37.63 43.6792 36.01 41.7492 36.01C39.8192 36.01 38.1792 37.63 38.1792 39.56C38.1792 41.49 39.8192 43.12 41.7492 43.12ZM41.7492 42.19C40.3792 42.19 39.2192 40.99 39.2192 39.56C39.2192 38.14 40.3792 36.94 41.7492 36.94C43.1192 36.94 44.2692 38.14 44.2692 39.56C44.2692 40.99 43.1192 42.19 41.7492 42.19ZM47.4652 42.06V36.13H46.4452V43H51.1052V42.06H47.4652ZM55.4699 43.12C57.3999 43.12 59.0199 41.49 59.0199 39.56C59.0199 37.63 57.3999 36.01 55.4699 36.01C53.5399 36.01 51.8999 37.63 51.8999 39.56C51.8999 41.49 53.5399 43.12 55.4699 43.12ZM55.4699 42.19C54.0999 42.19 52.9399 40.99 52.9399 39.56C52.9399 38.14 54.0999 36.94 55.4699 36.94C56.8399 36.94 57.9899 38.14 57.9899 39.56C57.9899 40.99 56.8399 42.19 55.4699 42.19ZM65.6959 38.37C65.6959 37.06 64.5959 36.13 63.1459 36.13H60.2559V43H61.2659V40.61H62.8459L64.5259 43H65.6859L63.9359 40.51C64.9759 40.24 65.6959 39.43 65.6959 38.37ZM61.2659 37.07H63.0059C63.9959 37.07 64.6659 37.56 64.6659 38.37C64.6659 39.18 63.9959 39.67 63.0059 39.67H61.2659V37.07ZM69.3077 43.11C70.9277 43.11 71.8077 42.23 71.8077 41.07C71.8077 39.84 70.8577 39.38 69.4877 39.06C68.3577 38.79 67.7677 38.57 67.7677 37.93C67.7677 37.38 68.3077 36.89 69.0777 36.89C69.7777 36.89 70.4677 37.2 71.0477 37.73L71.6277 36.97C70.9677 36.39 70.1777 36 69.1177 36C67.7377 36 66.7377 36.87 66.7377 38.02C66.7377 39.26 67.6677 39.68 69.0677 40.01C70.2177 40.27 70.7877 40.52 70.7877 41.17C70.7877 41.72 70.2977 42.22 69.3477 42.22C68.4177 42.22 67.6977 41.84 67.0877 41.26L66.4777 42.01C67.2077 42.71 68.1577 43.11 69.3077 43.11Z" fill="#777070"/>
<path d="M31.87 149H35.26C36.49 149 37.37 148.23 37.37 147.13C37.37 146.37 36.91 145.75 36.11 145.36C36.73 145.01 37.09 144.56 37.09 143.84C37.09 142.84 36.28 142.13 35.13 142.13H31.87V149ZM32.88 144.99V143.02H34.88C35.57 143.02 36.06 143.44 36.06 144.01C36.06 144.58 35.57 144.99 34.88 144.99H32.88ZM32.88 148.11V145.85H35.03C35.8 145.85 36.34 146.32 36.34 146.98C36.34 147.64 35.8 148.11 35.03 148.11H32.88ZM41.6348 149.12C43.3548 149.12 44.5848 147.87 44.5848 146.11V142.13H43.5648V146.09C43.5648 147.32 42.7648 148.2 41.6348 148.2C40.4948 148.2 39.6948 147.32 39.6948 146.09V142.13H38.6848V146.11C38.6848 147.87 39.9048 149.12 41.6348 149.12ZM48.035 149H49.045V143.07H51.305V142.13H45.785V143.07H48.035V149ZM54.3631 149H55.3731V143.07H57.6331V142.13H52.1131V143.07H54.3631V149ZM61.6809 149.12C63.6109 149.12 65.2309 147.49 65.2309 145.56C65.2309 143.63 63.6109 142.01 61.6809 142.01C59.7509 142.01 58.1109 143.63 58.1109 145.56C58.1109 147.49 59.7509 149.12 61.6809 149.12ZM61.6809 148.19C60.3109 148.19 59.1509 146.99 59.1509 145.56C59.1509 144.14 60.3109 142.94 61.6809 142.94C63.0509 142.94 64.2009 144.14 64.2009 145.56C64.2009 146.99 63.0509 148.19 61.6809 148.19ZM66.5868 149H67.5968V143.79L71.5468 149H72.5568V142.13H71.5468V147.34L67.5968 142.13H66.5868V149ZM76.6416 149.11C78.2616 149.11 79.1416 148.23 79.1416 147.07C79.1416 145.84 78.1916 145.38 76.8216 145.06C75.6916 144.79 75.1016 144.57 75.1016 143.93C75.1016 143.38 75.6416 142.89 76.4116 142.89C77.1116 142.89 77.8016 143.2 78.3816 143.73L78.9616 142.97C78.3016 142.39 77.5116 142 76.4516 142C75.0716 142 74.0716 142.87 74.0716 144.02C74.0716 145.26 75.0016 145.68 76.4016 146.01C77.5516 146.27 78.1216 146.52 78.1216 147.17C78.1216 147.72 77.6316 148.22 76.6816 148.22C75.7516 148.22 75.0316 147.84 74.4216 147.26L73.8116 148.01C74.5416 148.71 75.4916 149.11 76.6416 149.11Z" fill="#777070"/>
<path d="M251.8 143.07V142.13H246.75V149H247.77V146.01H251.41V145.07H247.77V143.07H251.8ZM256.222 149.12C258.152 149.12 259.772 147.49 259.772 145.56C259.772 143.63 258.152 142.01 256.222 142.01C254.292 142.01 252.652 143.63 252.652 145.56C252.652 147.49 254.292 149.12 256.222 149.12ZM256.222 148.19C254.852 148.19 253.692 146.99 253.692 145.56C253.692 144.14 254.852 142.94 256.222 142.94C257.592 142.94 258.742 144.14 258.742 145.56C258.742 146.99 257.592 148.19 256.222 148.19ZM261.128 149H262.138V143.79L266.088 149H267.098V142.13H266.088V147.34L262.138 142.13H261.128V149ZM270.633 149H271.643V143.07H273.903V142.13H268.383V143.07H270.633V149ZM277.511 149.11C279.131 149.11 280.011 148.23 280.011 147.07C280.011 145.84 279.061 145.38 277.691 145.06C276.561 144.79 275.971 144.57 275.971 143.93C275.971 143.38 276.511 142.89 277.281 142.89C277.981 142.89 278.671 143.2 279.251 143.73L279.831 142.97C279.171 142.39 278.381 142 277.321 142C275.941 142 274.941 142.87 274.941 144.02C274.941 145.26 275.871 145.68 277.271 146.01C278.421 146.27 278.991 146.52 278.991 147.17C278.991 147.72 278.501 148.22 277.551 148.22C276.621 148.22 275.901 147.84 275.291 147.26L274.681 148.01C275.411 148.71 276.361 149.11 277.511 149.11Z" fill="#777070"/>
<path d="M38.4824 110.598H36.9355L36.4668 113H35.6289L36.0977 110.598H34.6973V109.795H36.25L36.6543 107.721H35.1426V106.906H36.8125L37.293 104.469H38.1309L37.6504 106.906H39.1973L39.6777 104.469H40.5215L40.041 106.906H41.2363V107.721H39.8828L39.4785 109.795H40.7969V110.598H39.3262L38.8574 113H38.0137L38.4824 110.598ZM37.0879 109.795H38.6348L39.0391 107.721H37.4922L37.0879 109.795ZM42.6016 108.723L43.0352 104.469H47.4062V105.471H43.9551L43.6973 107.797C44.1152 107.551 44.5898 107.428 45.1211 107.428C45.8984 107.428 46.5156 107.686 46.9727 108.201C47.4297 108.713 47.6582 109.406 47.6582 110.281C47.6582 111.16 47.4199 111.854 46.9434 112.361C46.4707 112.865 45.8086 113.117 44.957 113.117C44.2031 113.117 43.5879 112.908 43.1113 112.49C42.6348 112.072 42.3633 111.494 42.2969 110.756H43.3223C43.3887 111.244 43.5625 111.613 43.8438 111.863C44.125 112.109 44.4961 112.232 44.957 112.232C45.4609 112.232 45.8555 112.061 46.1406 111.717C46.4297 111.373 46.5742 110.898 46.5742 110.293C46.5742 109.723 46.418 109.266 46.1055 108.922C45.7969 108.574 45.3848 108.4 44.8691 108.4C44.3965 108.4 44.0254 108.504 43.7559 108.711L43.4688 108.945L42.6016 108.723ZM53.9453 109.057H50.248V112.08H54.543V113H49.123V104.469H54.4844V105.395H50.248V108.137H53.9453V109.057ZM55.9434 113V104.469H58.7324C59.6582 104.469 60.3535 104.66 60.8184 105.043C61.2871 105.426 61.5215 105.992 61.5215 106.742C61.5215 107.141 61.4082 107.494 61.1816 107.803C60.9551 108.107 60.6465 108.344 60.2559 108.512C60.7168 108.641 61.0801 108.887 61.3457 109.25C61.6152 109.609 61.75 110.039 61.75 110.539C61.75 111.305 61.502 111.906 61.0059 112.344C60.5098 112.781 59.8086 113 58.9023 113H55.9434ZM57.0684 109.01V112.08H58.9258C59.4492 112.08 59.8613 111.945 60.1621 111.676C60.4668 111.402 60.6191 111.027 60.6191 110.551C60.6191 109.523 60.0605 109.01 58.9434 109.01H57.0684ZM57.0684 108.107H58.7676C59.2598 108.107 59.6523 107.984 59.9453 107.738C60.2422 107.492 60.3906 107.158 60.3906 106.736C60.3906 106.268 60.2539 105.928 59.9805 105.717C59.707 105.502 59.291 105.395 58.7324 105.395H57.0684V108.107ZM68.3125 106.695C68.3125 107.121 68.1992 107.5 67.9727 107.832C67.75 108.164 67.4473 108.424 67.0645 108.611C67.5098 108.803 67.8613 109.082 68.1191 109.449C68.3809 109.816 68.5117 110.232 68.5117 110.697C68.5117 111.436 68.2617 112.023 67.7617 112.461C67.2656 112.898 66.6113 113.117 65.7988 113.117C64.9785 113.117 64.3203 112.898 63.8242 112.461C63.332 112.02 63.0859 111.432 63.0859 110.697C63.0859 110.236 63.2109 109.82 63.4609 109.449C63.7148 109.078 64.0645 108.797 64.5098 108.605C64.1309 108.418 63.832 108.158 63.6133 107.826C63.3945 107.494 63.2852 107.117 63.2852 106.695C63.2852 105.977 63.5156 105.406 63.9766 104.984C64.4375 104.562 65.0449 104.352 65.7988 104.352C66.5488 104.352 67.1543 104.562 67.6152 104.984C68.0801 105.406 68.3125 105.977 68.3125 106.695ZM67.4277 110.674C67.4277 110.197 67.2754 109.809 66.9707 109.508C66.6699 109.207 66.2754 109.057 65.7871 109.057C65.2988 109.057 64.9062 109.205 64.6094 109.502C64.3164 109.799 64.1699 110.189 64.1699 110.674C64.1699 111.158 64.3125 111.539 64.5977 111.816C64.8867 112.094 65.2871 112.232 65.7988 112.232C66.3066 112.232 66.7051 112.094 66.9941 111.816C67.2832 111.535 67.4277 111.154 67.4277 110.674ZM65.7988 105.242C65.373 105.242 65.0273 105.375 64.7617 105.641C64.5 105.902 64.3691 106.26 64.3691 106.713C64.3691 107.146 64.498 107.498 64.7559 107.768C65.0176 108.033 65.3652 108.166 65.7988 108.166C66.2324 108.166 66.5781 108.033 66.8359 107.768C67.0977 107.498 67.2285 107.146 67.2285 106.713C67.2285 106.279 67.0938 105.926 66.8242 105.652C66.5547 105.379 66.2129 105.242 65.7988 105.242ZM74.8691 110.773H71.2949L70.4922 113H69.332L72.5898 104.469H73.5742L76.8379 113H75.6836L74.8691 110.773ZM71.6348 109.848H74.5352L73.082 105.857L71.6348 109.848ZM81.8594 109.25C81.6328 109.52 81.3613 109.736 81.0449 109.9C80.7324 110.064 80.3887 110.146 80.0137 110.146C79.5215 110.146 79.0918 110.025 78.7246 109.783C78.3613 109.541 78.0801 109.201 77.8809 108.764C77.6816 108.322 77.582 107.836 77.582 107.305C77.582 106.734 77.6895 106.221 77.9043 105.764C78.123 105.307 78.4316 104.957 78.8301 104.715C79.2285 104.473 79.6934 104.352 80.2246 104.352C81.0684 104.352 81.7324 104.668 82.2168 105.301C82.7051 105.93 82.9492 106.789 82.9492 107.879V108.195C82.9492 109.855 82.6211 111.068 81.9648 111.834C81.3086 112.596 80.3184 112.986 78.9941 113.006H78.7832V112.092H79.0117C79.9062 112.076 80.5938 111.844 81.0742 111.395C81.5547 110.941 81.8164 110.227 81.8594 109.25ZM80.1895 109.25C80.5527 109.25 80.8867 109.139 81.1914 108.916C81.5 108.693 81.7246 108.418 81.8652 108.09V107.656C81.8652 106.945 81.7109 106.367 81.4023 105.922C81.0938 105.477 80.7031 105.254 80.2305 105.254C79.7539 105.254 79.3711 105.438 79.082 105.805C78.793 106.168 78.6484 106.648 78.6484 107.246C78.6484 107.828 78.7871 108.309 79.0645 108.688C79.3457 109.062 79.7207 109.25 80.1895 109.25Z" fill="black"/>
<path d="M100.482 110.598H98.9355L98.4668 113H97.6289L98.0977 110.598H96.6973V109.795H98.25L98.6543 107.721H97.1426V106.906H98.8125L99.293 104.469H100.131L99.6504 106.906H101.197L101.678 104.469H102.521L102.041 106.906H103.236V107.721H101.883L101.479 109.795H102.797V110.598H101.326L100.857 113H100.014L100.482 110.598ZM99.0879 109.795H100.635L101.039 107.721H99.4922L99.0879 109.795ZM108.357 104.463V105.383H108.158C107.314 105.398 106.643 105.648 106.143 106.133C105.643 106.617 105.354 107.299 105.275 108.178C105.725 107.662 106.338 107.404 107.115 107.404C107.857 107.404 108.449 107.666 108.891 108.189C109.336 108.713 109.559 109.389 109.559 110.217C109.559 111.096 109.318 111.799 108.838 112.326C108.361 112.854 107.721 113.117 106.916 113.117C106.1 113.117 105.438 112.805 104.93 112.18C104.422 111.551 104.168 110.742 104.168 109.754V109.338C104.168 107.768 104.502 106.568 105.17 105.74C105.842 104.908 106.84 104.482 108.164 104.463H108.357ZM106.934 108.307C106.562 108.307 106.221 108.418 105.908 108.641C105.596 108.863 105.379 109.143 105.258 109.479V109.877C105.258 110.58 105.416 111.146 105.732 111.576C106.049 112.006 106.443 112.221 106.916 112.221C107.404 112.221 107.787 112.041 108.064 111.682C108.346 111.322 108.486 110.852 108.486 110.27C108.486 109.684 108.344 109.211 108.059 108.852C107.777 108.488 107.402 108.307 106.934 108.307ZM111.123 113V104.469H113.531C114.273 104.469 114.93 104.633 115.5 104.961C116.07 105.289 116.51 105.756 116.818 106.361C117.131 106.967 117.289 107.662 117.293 108.447V108.992C117.293 109.797 117.137 110.502 116.824 111.107C116.516 111.713 116.072 112.178 115.494 112.502C114.92 112.826 114.25 112.992 113.484 113H111.123ZM112.248 105.395V112.08H113.432C114.299 112.08 114.973 111.811 115.453 111.271C115.938 110.732 116.18 109.965 116.18 108.969V108.471C116.18 107.502 115.951 106.75 115.494 106.215C115.041 105.676 114.396 105.402 113.561 105.395H112.248ZM118.998 113V104.469H121.787C122.713 104.469 123.408 104.66 123.873 105.043C124.342 105.426 124.576 105.992 124.576 106.742C124.576 107.141 124.463 107.494 124.236 107.803C124.01 108.107 123.701 108.344 123.311 108.512C123.771 108.641 124.135 108.887 124.4 109.25C124.67 109.609 124.805 110.039 124.805 110.539C124.805 111.305 124.557 111.906 124.061 112.344C123.564 112.781 122.863 113 121.957 113H118.998ZM120.123 109.01V112.08H121.98C122.504 112.08 122.916 111.945 123.217 111.676C123.521 111.402 123.674 111.027 123.674 110.551C123.674 109.523 123.115 109.01 121.998 109.01H120.123ZM120.123 108.107H121.822C122.314 108.107 122.707 107.984 123 107.738C123.297 107.492 123.445 107.158 123.445 106.736C123.445 106.268 123.309 105.928 123.035 105.717C122.762 105.502 122.346 105.395 121.787 105.395H120.123V108.107ZM127.77 108.207H128.584C129.096 108.199 129.498 108.064 129.791 107.803C130.084 107.541 130.23 107.188 130.23 106.742C130.23 105.742 129.732 105.242 128.736 105.242C128.268 105.242 127.893 105.377 127.611 105.646C127.334 105.912 127.195 106.266 127.195 106.707H126.111C126.111 106.031 126.357 105.471 126.85 105.025C127.346 104.576 127.975 104.352 128.736 104.352C129.541 104.352 130.172 104.564 130.629 104.99C131.086 105.416 131.314 106.008 131.314 106.766C131.314 107.137 131.193 107.496 130.951 107.844C130.713 108.191 130.387 108.451 129.973 108.623C130.441 108.771 130.803 109.018 131.057 109.361C131.314 109.705 131.443 110.125 131.443 110.621C131.443 111.387 131.193 111.994 130.693 112.443C130.193 112.893 129.543 113.117 128.742 113.117C127.941 113.117 127.289 112.9 126.785 112.467C126.285 112.033 126.035 111.461 126.035 110.75H127.125C127.125 111.199 127.271 111.559 127.564 111.828C127.857 112.098 128.25 112.232 128.742 112.232C129.266 112.232 129.666 112.096 129.943 111.822C130.221 111.549 130.359 111.156 130.359 110.645C130.359 110.148 130.207 109.768 129.902 109.502C129.598 109.236 129.158 109.1 128.584 109.092H127.77V108.207ZM138.439 105.078L134.906 113H133.77L137.291 105.359H132.674V104.469H138.439V105.078ZM144.656 109.232H141.076V113H139.951V104.469H145.236V105.395H141.076V108.312H144.656V109.232Z" fill="black"/>
<path d="M162.482 110.598H160.936L160.467 113H159.629L160.098 110.598H158.697V109.795H160.25L160.654 107.721H159.143V106.906H160.812L161.293 104.469H162.131L161.65 106.906H163.197L163.678 104.469H164.521L164.041 106.906H165.236V107.721H163.883L163.479 109.795H164.797V110.598H163.326L162.857 113H162.014L162.482 110.598ZM161.088 109.795H162.635L163.039 107.721H161.492L161.088 109.795ZM170.357 104.463V105.383H170.158C169.314 105.398 168.643 105.648 168.143 106.133C167.643 106.617 167.354 107.299 167.275 108.178C167.725 107.662 168.338 107.404 169.115 107.404C169.857 107.404 170.449 107.666 170.891 108.189C171.336 108.713 171.559 109.389 171.559 110.217C171.559 111.096 171.318 111.799 170.838 112.326C170.361 112.854 169.721 113.117 168.916 113.117C168.1 113.117 167.438 112.805 166.93 112.18C166.422 111.551 166.168 110.742 166.168 109.754V109.338C166.168 107.768 166.502 106.568 167.17 105.74C167.842 104.908 168.84 104.482 170.164 104.463H170.357ZM168.934 108.307C168.562 108.307 168.221 108.418 167.908 108.641C167.596 108.863 167.379 109.143 167.258 109.479V109.877C167.258 110.58 167.416 111.146 167.732 111.576C168.049 112.006 168.443 112.221 168.916 112.221C169.404 112.221 169.787 112.041 170.064 111.682C170.346 111.322 170.486 110.852 170.486 110.27C170.486 109.684 170.344 109.211 170.059 108.852C169.777 108.488 169.402 108.307 168.934 108.307ZM173.123 113V104.469H175.531C176.273 104.469 176.93 104.633 177.5 104.961C178.07 105.289 178.51 105.756 178.818 106.361C179.131 106.967 179.289 107.662 179.293 108.447V108.992C179.293 109.797 179.137 110.502 178.824 111.107C178.516 111.713 178.072 112.178 177.494 112.502C176.92 112.826 176.25 112.992 175.484 113H173.123ZM174.248 105.395V112.08H175.432C176.299 112.08 176.973 111.811 177.453 111.271C177.938 110.732 178.18 109.965 178.18 108.969V108.471C178.18 107.502 177.951 106.75 177.494 106.215C177.041 105.676 176.396 105.402 175.561 105.395H174.248ZM180.998 113V104.469H183.787C184.713 104.469 185.408 104.66 185.873 105.043C186.342 105.426 186.576 105.992 186.576 106.742C186.576 107.141 186.463 107.494 186.236 107.803C186.01 108.107 185.701 108.344 185.311 108.512C185.771 108.641 186.135 108.887 186.4 109.25C186.67 109.609 186.805 110.039 186.805 110.539C186.805 111.305 186.557 111.906 186.061 112.344C185.564 112.781 184.863 113 183.957 113H180.998ZM182.123 109.01V112.08H183.98C184.504 112.08 184.916 111.945 185.217 111.676C185.521 111.402 185.674 111.027 185.674 110.551C185.674 109.523 185.115 109.01 183.998 109.01H182.123ZM182.123 108.107H183.822C184.314 108.107 184.707 107.984 185 107.738C185.297 107.492 185.445 107.158 185.445 106.736C185.445 106.268 185.309 105.928 185.035 105.717C184.762 105.502 184.346 105.395 183.787 105.395H182.123V108.107ZM189.77 108.207H190.584C191.096 108.199 191.498 108.064 191.791 107.803C192.084 107.541 192.23 107.188 192.23 106.742C192.23 105.742 191.732 105.242 190.736 105.242C190.268 105.242 189.893 105.377 189.611 105.646C189.334 105.912 189.195 106.266 189.195 106.707H188.111C188.111 106.031 188.357 105.471 188.85 105.025C189.346 104.576 189.975 104.352 190.736 104.352C191.541 104.352 192.172 104.564 192.629 104.99C193.086 105.416 193.314 106.008 193.314 106.766C193.314 107.137 193.193 107.496 192.951 107.844C192.713 108.191 192.387 108.451 191.973 108.623C192.441 108.771 192.803 109.018 193.057 109.361C193.314 109.705 193.443 110.125 193.443 110.621C193.443 111.387 193.193 111.994 192.693 112.443C192.193 112.893 191.543 113.117 190.742 113.117C189.941 113.117 189.289 112.9 188.785 112.467C188.285 112.033 188.035 111.461 188.035 110.75H189.125C189.125 111.199 189.271 111.559 189.564 111.828C189.857 112.098 190.25 112.232 190.742 112.232C191.266 112.232 191.666 112.096 191.943 111.822C192.221 111.549 192.359 111.156 192.359 110.645C192.359 110.148 192.207 109.768 191.902 109.502C191.598 109.236 191.158 109.1 190.584 109.092H189.77V108.207ZM200.439 105.078L196.906 113H195.77L199.291 105.359H194.674V104.469H200.439V105.078ZM206.656 109.232H203.076V113H201.951V104.469H207.236V105.395H203.076V108.312H206.656V109.232Z" fill="black"/>
<path d="M224.482 110.598H222.936L222.467 113H221.629L222.098 110.598H220.697V109.795H222.25L222.654 107.721H221.143V106.906H222.812L223.293 104.469H224.131L223.65 106.906H225.197L225.678 104.469H226.521L226.041 106.906H227.236V107.721H225.883L225.479 109.795H226.797V110.598H225.326L224.857 113H224.014L224.482 110.598ZM223.088 109.795H224.635L225.039 107.721H223.492L223.088 109.795ZM232.357 104.463V105.383H232.158C231.314 105.398 230.643 105.648 230.143 106.133C229.643 106.617 229.354 107.299 229.275 108.178C229.725 107.662 230.338 107.404 231.115 107.404C231.857 107.404 232.449 107.666 232.891 108.189C233.336 108.713 233.559 109.389 233.559 110.217C233.559 111.096 233.318 111.799 232.838 112.326C232.361 112.854 231.721 113.117 230.916 113.117C230.1 113.117 229.438 112.805 228.93 112.18C228.422 111.551 228.168 110.742 228.168 109.754V109.338C228.168 107.768 228.502 106.568 229.17 105.74C229.842 104.908 230.84 104.482 232.164 104.463H232.357ZM230.934 108.307C230.562 108.307 230.221 108.418 229.908 108.641C229.596 108.863 229.379 109.143 229.258 109.479V109.877C229.258 110.58 229.416 111.146 229.732 111.576C230.049 112.006 230.443 112.221 230.916 112.221C231.404 112.221 231.787 112.041 232.064 111.682C232.346 111.322 232.486 110.852 232.486 110.27C232.486 109.684 232.344 109.211 232.059 108.852C231.777 108.488 231.402 108.307 230.934 108.307ZM235.123 113V104.469H237.531C238.273 104.469 238.93 104.633 239.5 104.961C240.07 105.289 240.51 105.756 240.818 106.361C241.131 106.967 241.289 107.662 241.293 108.447V108.992C241.293 109.797 241.137 110.502 240.824 111.107C240.516 111.713 240.072 112.178 239.494 112.502C238.92 112.826 238.25 112.992 237.484 113H235.123ZM236.248 105.395V112.08H237.432C238.299 112.08 238.973 111.811 239.453 111.271C239.938 110.732 240.18 109.965 240.18 108.969V108.471C240.18 107.502 239.951 106.75 239.494 106.215C239.041 105.676 238.396 105.402 237.561 105.395H236.248ZM242.998 113V104.469H245.787C246.713 104.469 247.408 104.66 247.873 105.043C248.342 105.426 248.576 105.992 248.576 106.742C248.576 107.141 248.463 107.494 248.236 107.803C248.01 108.107 247.701 108.344 247.311 108.512C247.771 108.641 248.135 108.887 248.4 109.25C248.67 109.609 248.805 110.039 248.805 110.539C248.805 111.305 248.557 111.906 248.061 112.344C247.564 112.781 246.863 113 245.957 113H242.998ZM244.123 109.01V112.08H245.98C246.504 112.08 246.916 111.945 247.217 111.676C247.521 111.402 247.674 111.027 247.674 110.551C247.674 109.523 247.115 109.01 245.998 109.01H244.123ZM244.123 108.107H245.822C246.314 108.107 246.707 107.984 247 107.738C247.297 107.492 247.445 107.158 247.445 106.736C247.445 106.268 247.309 105.928 247.035 105.717C246.762 105.502 246.346 105.395 245.787 105.395H244.123V108.107ZM251.77 108.207H252.584C253.096 108.199 253.498 108.064 253.791 107.803C254.084 107.541 254.23 107.188 254.23 106.742C254.23 105.742 253.732 105.242 252.736 105.242C252.268 105.242 251.893 105.377 251.611 105.646C251.334 105.912 251.195 106.266 251.195 106.707H250.111C250.111 106.031 250.357 105.471 250.85 105.025C251.346 104.576 251.975 104.352 252.736 104.352C253.541 104.352 254.172 104.564 254.629 104.99C255.086 105.416 255.314 106.008 255.314 106.766C255.314 107.137 255.193 107.496 254.951 107.844C254.713 108.191 254.387 108.451 253.973 108.623C254.441 108.771 254.803 109.018 255.057 109.361C255.314 109.705 255.443 110.125 255.443 110.621C255.443 111.387 255.193 111.994 254.693 112.443C254.193 112.893 253.543 113.117 252.742 113.117C251.941 113.117 251.289 112.9 250.785 112.467C250.285 112.033 250.035 111.461 250.035 110.75H251.125C251.125 111.199 251.271 111.559 251.564 111.828C251.857 112.098 252.25 112.232 252.742 112.232C253.266 112.232 253.666 112.096 253.943 111.822C254.221 111.549 254.359 111.156 254.359 110.645C254.359 110.148 254.207 109.768 253.902 109.502C253.598 109.236 253.158 109.1 252.584 109.092H251.77V108.207ZM262.439 105.078L258.906 113H257.77L261.291 105.359H256.674V104.469H262.439V105.078ZM268.656 109.232H265.076V113H263.951V104.469H269.236V105.395H265.076V108.312H268.656V109.232Z" fill="black"/>
<path d="M32.68 230.06V224.13H31.66V231H36.32V230.06H32.68ZM40.6848 231.12C42.6148 231.12 44.2348 229.49 44.2348 227.56C44.2348 225.63 42.6148 224.01 40.6848 224.01C38.7548 224.01 37.1148 225.63 37.1148 227.56C37.1148 229.49 38.7548 231.12 40.6848 231.12ZM40.6848 230.19C39.3148 230.19 38.1548 228.99 38.1548 227.56C38.1548 226.14 39.3148 224.94 40.6848 224.94C42.0548 224.94 43.2048 226.14 43.2048 227.56C43.2048 228.99 42.0548 230.19 40.6848 230.19ZM48.6407 228.18H50.4807V229.62C50.0107 229.98 49.3607 230.19 48.7807 230.19C47.4007 230.19 46.2407 228.99 46.2407 227.56C46.2407 226.14 47.4007 224.94 48.7807 224.94C49.4907 224.94 50.3007 225.26 50.7707 225.77L51.4807 225.09C50.8307 224.42 49.7507 224.01 48.7807 224.01C46.8507 224.01 45.2007 225.63 45.2007 227.56C45.2007 229.49 46.8507 231.12 48.7807 231.12C49.7507 231.12 50.8307 230.7 51.4807 230.04V227.3H48.6407V228.18ZM56.2121 231.12C58.1421 231.12 59.7621 229.49 59.7621 227.56C59.7621 225.63 58.1421 224.01 56.2121 224.01C54.2821 224.01 52.6421 225.63 52.6421 227.56C52.6421 229.49 54.2821 231.12 56.2121 231.12ZM56.2121 230.19C54.8421 230.19 53.6821 228.99 53.6821 227.56C53.6821 226.14 54.8421 224.94 56.2121 224.94C57.5821 224.94 58.7321 226.14 58.7321 227.56C58.7321 228.99 57.5821 230.19 56.2121 230.19ZM63.458 231.11C65.078 231.11 65.958 230.23 65.958 229.07C65.958 227.84 65.008 227.38 63.638 227.06C62.508 226.79 61.918 226.57 61.918 225.93C61.918 225.38 62.458 224.89 63.228 224.89C63.928 224.89 64.618 225.2 65.198 225.73L65.778 224.97C65.118 224.39 64.328 224 63.268 224C61.888 224 60.888 224.87 60.888 226.02C60.888 227.26 61.818 227.68 63.218 228.01C64.368 228.27 64.938 228.52 64.938 229.17C64.938 229.72 64.448 230.22 63.498 230.22C62.568 230.22 61.848 229.84 61.238 229.26L60.628 230.01C61.358 230.71 62.308 231.11 63.458 231.11Z" fill="#777070"/>
<rect width="67" height="19" transform="translate(29 161)" fill="#5EB8A9"/>
<path d="M48.5642 173.099C50.0222 173.099 50.8142 172.307 50.8142 171.263C50.8142 170.156 49.9592 169.742 48.7262 169.454C47.7092 169.211 47.1782 169.013 47.1782 168.437C47.1782 167.942 47.6642 167.501 48.3572 167.501C48.9872 167.501 49.6082 167.78 50.1302 168.257L50.6522 167.573C50.0582 167.051 49.3472 166.7 48.3932 166.7C47.1512 166.7 46.2512 167.483 46.2512 168.518C46.2512 169.634 47.0882 170.012 48.3482 170.309C49.3832 170.543 49.8962 170.768 49.8962 171.353C49.8962 171.848 49.4552 172.298 48.6002 172.298C47.7632 172.298 47.1152 171.956 46.5662 171.434L46.0172 172.109C46.6742 172.739 47.5292 173.099 48.5642 173.099ZM56.2592 167.663V166.817H51.7142V173H56.2592V172.154H52.6322V170.273H55.9082V169.427H52.6322V167.663H56.2592ZM61.7287 167.663V166.817H57.1837V173H61.7287V172.154H58.1017V170.273H61.3777V169.427H58.1017V167.663H61.7287ZM69.8803 173H70.8883L68.2333 166.817H67.2253L64.5703 173H65.5783L66.1183 171.74H69.3403L69.8803 173ZM66.4693 170.921L67.7293 167.987L68.9893 170.921H66.4693ZM72.4164 172.154V166.817H71.4984V173H75.6924V172.154H72.4164ZM77.2706 172.154V166.817H76.3526V173H80.5466V172.154H77.2706Z" fill="white"/>
<rect width="93" height="23" transform="translate(111 159)" fill="white"/>
<rect x="111.5" y="159.5" width="92.29" height="22.13" fill="white" stroke="#5EB8A9"/>
<path d="M134.008 169.833C134.008 168.654 133.018 167.817 131.713 167.817H129.112V174H130.021V171.849H131.443L132.955 174H133.999L132.424 171.759C133.36 171.516 134.008 170.787 134.008 169.833ZM130.021 168.663H131.587C132.478 168.663 133.081 169.104 133.081 169.833C133.081 170.562 132.478 171.003 131.587 171.003H130.021V168.663ZM139.373 168.663V167.817H134.828V174H139.373V173.154H135.746V171.273H139.022V170.427H135.746V168.663H139.373ZM143.267 174.108C144.149 174.108 144.959 173.73 145.544 173.136L144.905 172.524C144.491 172.974 143.906 173.271 143.267 173.271C142.034 173.271 140.99 172.191 140.99 170.904C140.99 169.626 142.034 168.546 143.267 168.546C143.906 168.546 144.491 168.843 144.905 169.293L145.544 168.681C144.959 168.078 144.149 167.709 143.267 167.709C141.53 167.709 140.054 169.167 140.054 170.904C140.054 172.641 141.53 174.108 143.267 174.108ZM149.079 174.108C150.816 174.108 152.274 172.641 152.274 170.904C152.274 169.167 150.816 167.709 149.079 167.709C147.342 167.709 145.866 169.167 145.866 170.904C145.866 172.641 147.342 174.108 149.079 174.108ZM149.079 173.271C147.846 173.271 146.802 172.191 146.802 170.904C146.802 169.626 147.846 168.546 149.079 168.546C150.312 168.546 151.347 169.626 151.347 170.904C151.347 172.191 150.312 173.271 149.079 173.271ZM153.278 174H154.187V169.599L156.356 173.64L158.525 169.599V174H159.434V167.817H158.525L156.356 171.858L154.187 167.817H153.278V174ZM160.786 174H161.695V169.599L163.864 173.64L166.033 169.599V174H166.942V167.817H166.033L163.864 171.858L161.695 167.817H160.786V174ZM172.732 168.663V167.817H168.187V174H172.732V173.154H169.105V171.273H172.381V170.427H169.105V168.663H172.732ZM173.764 174H174.673V169.311L178.228 174H179.137V167.817H178.228V172.506L174.673 167.817H173.764V174ZM180.49 174H182.623C184.621 174 186.043 172.713 186.043 170.904C186.043 169.095 184.621 167.817 182.623 167.817H180.49V174ZM181.399 173.172V168.645H182.677C184.108 168.645 185.107 169.581 185.107 170.904C185.107 172.236 184.108 173.172 182.677 173.172H181.399Z" fill="#5EB8A9"/>
<circle cx="45" cy="255" r="16" fill="#5EB8A9"/>
<path d="M53.8488 259.775C53.9459 259.539 53.9997 259.28 53.9997 259.009C53.9997 258.48 53.7918 257.999 53.454 257.643C53.8061 257.272 53.9998 256.789 53.9998 256.277C53.9998 255.748 53.7917 255.267 53.4536 254.911C53.8059 254.54 53.9998 254.057 53.9998 253.544C53.9998 253.015 53.7914 252.534 53.4529 252.178C53.7914 251.821 53.9997 251.34 53.9997 250.811C53.9997 249.716 53.1089 248.826 52.014 248.826H50.1122C50.0418 247.34 48.8114 246.153 47.3087 246.153C45.806 246.153 44.5755 247.34 44.5052 248.826H38.4763C37.3813 248.826 36.4906 249.716 36.4906 250.811C36.4906 251.34 36.6987 251.821 37.0367 252.177C36.6844 252.547 36.4905 253.03 36.4905 253.544C36.4905 254.073 36.6986 254.553 37.0367 254.91C36.6844 255.28 36.4905 255.763 36.4905 256.276C36.4905 256.805 36.6989 257.286 37.0374 257.642C36.6989 257.998 36.4906 258.48 36.4906 259.009C36.4906 259.28 36.5445 259.539 36.6415 259.775H34.647V260.395C34.647 262.091 36.0139 263.471 37.6942 263.471H52.7961C54.4763 263.471 55.8433 262.091 55.8433 260.395V259.775H53.8488ZM38.4754 255.53H44.24V256.328C44.24 256.572 44.2855 256.806 44.3685 257.022H38.4754C38.0634 257.022 37.7294 256.688 37.7294 256.276C37.7294 255.864 38.0634 255.53 38.4754 255.53ZM37.7294 253.543C37.7294 253.131 38.0634 252.797 38.4754 252.797H43.6424C43.9724 252.797 44.24 253.065 44.24 253.395V254.291H38.4754C38.0634 254.291 37.7294 253.957 37.7294 253.545V253.543ZM45.4789 256.333V253.394C45.4789 252.38 44.6568 251.558 43.6427 251.558H41.4594C41.0304 251.558 40.6826 251.21 40.6826 250.781V250.065H50.1022V250.781C50.1022 251.21 49.7542 251.558 49.3251 251.558H48.6927C47.6784 251.558 46.8561 252.38 46.8561 253.395V256.333C46.8561 256.714 46.5478 257.022 46.1675 257.022C45.7872 257.022 45.4789 256.714 45.4789 256.333ZM52.0138 254.291H48.095V253.394C48.095 253.065 48.3631 252.797 48.6926 252.797L52.0138 252.797C52.4258 252.797 52.7598 253.131 52.7598 253.543V253.545C52.7599 253.957 52.4258 254.291 52.0138 254.291V254.291ZM48.095 256.328V255.53H52.0138C52.4258 255.53 52.7599 255.864 52.7599 256.276C52.7599 256.688 52.4258 257.022 52.0138 257.022H47.9668C48.0511 256.803 48.095 256.569 48.095 256.328ZM52.7608 250.811C52.7608 251.223 52.4258 251.558 52.014 251.558H51.1851C51.2855 251.319 51.3411 251.056 51.3411 250.781V250.065H52.014C52.4258 250.065 52.7608 250.4 52.7608 250.811ZM47.3087 247.392C48.128 247.392 48.8021 248.024 48.8705 248.826H45.7469C45.8153 248.024 46.4894 247.392 47.3087 247.392V247.392ZM38.4763 250.065H39.4436V250.781C39.4436 251.056 39.4992 251.319 39.5996 251.558H38.4763C38.0645 251.558 37.7295 251.223 37.7295 250.811C37.7295 250.4 38.0645 250.065 38.4763 250.065V250.065ZM37.7295 259.009C37.7295 258.597 38.0645 258.261 38.4763 258.261H38.4765H52.0138H52.014C52.4258 258.261 52.7608 258.597 52.7608 259.009C52.7608 259.424 52.4188 259.775 52.014 259.775H38.4763C38.0715 259.775 37.7295 259.424 37.7295 259.009V259.009ZM52.7961 262.232H37.6942C36.911 262.232 36.2424 261.723 35.9917 261.014H54.4986C54.2479 261.723 53.5793 262.232 52.7961 262.232V262.232Z" fill="white"/>
<path d="M72.704 260.168C75.112 260.168 76.666 258.978 76.666 256.948C76.666 255.114 75.266 254.512 73.026 254.036C71.654 253.742 71.318 253.588 71.318 253.098C71.318 252.734 71.64 252.468 72.298 252.468C73.166 252.468 74.146 252.79 75.042 253.434L76.4 251.516C75.336 250.662 74.034 250.214 72.368 250.214C70.086 250.214 68.574 251.46 68.574 253.378C68.574 255.38 70.184 255.926 72.27 256.402C73.6 256.71 73.936 256.78 73.936 257.242C73.936 257.662 73.544 257.914 72.802 257.914C71.668 257.914 70.604 257.508 69.624 256.738L68.112 258.544C69.33 259.622 70.968 260.168 72.704 260.168ZM83.7428 257.718C83.6028 257.844 83.3368 257.928 83.0848 257.928C82.7208 257.928 82.4688 257.62 82.4688 257.186V254.89H83.8968V252.762H82.4688V250.774H79.8928V252.762H78.9828V254.89H79.8928V257.718C79.8928 259.16 80.9008 260.168 82.3428 260.168C82.9868 260.168 83.7568 259.86 84.2048 259.426L83.7428 257.718ZM90.449 252.594C89.231 252.594 88.153 252.944 87.145 253.448L87.971 255.086C88.573 254.778 89.035 254.596 89.721 254.596C90.561 254.596 91.205 255.016 91.205 255.73V255.772C90.687 255.562 90.155 255.45 89.679 255.45C87.929 255.45 86.557 256.444 86.557 257.858C86.557 259.216 87.789 260.168 89.343 260.168C90.029 260.168 90.715 259.93 91.205 259.482V260H93.795V255.73C93.795 253.756 92.283 252.594 90.449 252.594ZM90.001 258.572C89.483 258.572 89.119 258.25 89.119 257.788C89.119 257.298 89.511 256.948 90.057 256.948C90.477 256.948 90.953 257.046 91.205 257.172V257.858C91.149 258.278 90.645 258.572 90.001 258.572ZM100.57 260.168C101.914 260.168 102.936 259.622 103.664 258.782L101.886 257.354C101.592 257.69 101.06 257.928 100.598 257.928C99.7718 257.928 99.0858 257.214 99.0858 256.36C99.0858 255.534 99.7718 254.834 100.584 254.834C101.046 254.834 101.564 255.072 101.844 255.394L103.622 253.938C102.922 253.126 101.9 252.594 100.612 252.594C98.3858 252.594 96.5098 254.316 96.5098 256.374C96.5098 258.432 98.3718 260.168 100.57 260.168ZM111.304 255.884L113.838 252.762H110.814L108.952 255.31V250.214H106.25V260H108.952V258.334L109.54 257.606L110.87 260H113.894L111.304 255.884ZM119.072 260.168C121.032 260.168 122.222 259.216 122.222 257.718C122.222 256.01 120.71 255.576 119.394 255.282C118.666 255.114 118.344 255.072 118.344 254.834C118.344 254.624 118.596 254.428 118.974 254.428C119.66 254.428 120.486 254.806 121.088 255.198L121.998 253.546C121.172 253 120.094 252.594 118.974 252.594C117.084 252.594 115.95 253.686 115.95 255.086C115.95 256.794 117.42 257.116 118.736 257.396C119.408 257.536 119.828 257.676 119.828 257.928C119.828 258.166 119.646 258.292 119.142 258.292C118.372 258.292 117.336 257.928 116.636 257.438L115.628 259.076C116.51 259.762 117.812 260.168 119.072 260.168Z" fill="black"/>
<path d="M253.406 168H256.472L252.776 158.382H249.71L246.014 168H249.08L249.57 166.712H252.916L253.406 168ZM250.34 164.71L251.25 162.372L252.146 164.71H250.34ZM262.38 160.594C261.162 160.594 260.084 160.944 259.076 161.448L259.902 163.086C260.504 162.778 260.966 162.596 261.652 162.596C262.492 162.596 263.136 163.016 263.136 163.73V163.772C262.618 163.562 262.086 163.45 261.61 163.45C259.86 163.45 258.488 164.444 258.488 165.858C258.488 167.216 259.72 168.168 261.274 168.168C261.96 168.168 262.646 167.93 263.136 167.482V168H265.726V163.73C265.726 161.756 264.214 160.594 262.38 160.594ZM261.932 166.572C261.414 166.572 261.05 166.25 261.05 165.788C261.05 165.298 261.442 164.948 261.988 164.948C262.408 164.948 262.884 165.046 263.136 165.172V165.858C263.08 166.278 262.576 166.572 261.932 166.572Z" fill="black"/>
<path d="M254.624 217H256.192L252.062 207.382H250.494L246.364 217H247.932L248.772 215.04H253.784L254.624 217ZM249.318 213.766L251.278 209.202L253.238 213.766H249.318ZM262.281 209.594C261.483 209.594 260.573 209.804 259.537 210.322L260.041 211.344C260.671 211.022 261.371 210.742 262.085 210.742C263.527 210.742 263.947 211.708 263.947 212.618V212.842C263.247 212.604 262.477 212.45 261.763 212.45C260.167 212.45 258.865 213.416 258.865 214.858C258.865 216.272 259.999 217.168 261.539 217.168C262.421 217.168 263.415 216.762 263.947 216.006V217H265.305V212.618C265.305 210.826 264.227 209.594 262.281 209.594ZM261.805 216.076C260.895 216.076 260.195 215.6 260.195 214.816C260.195 214.032 261.007 213.486 261.973 213.486C262.687 213.486 263.359 213.584 263.947 213.766V214.732C263.709 215.628 262.701 216.076 261.805 216.076Z" fill="black"/>
<path d="M309.316 168H311.248L307.23 158.382H305.284L301.266 168H303.212L303.94 166.264H308.588L309.316 168ZM304.57 164.752L306.264 160.706L307.958 164.752H304.57ZM317.295 160.594C316.385 160.594 315.433 160.846 314.411 161.35L314.999 162.54C315.615 162.232 316.273 161.994 316.959 161.994C318.275 161.994 318.737 162.806 318.737 163.646V163.842C318.079 163.59 317.365 163.45 316.707 163.45C315.083 163.45 313.753 164.43 313.753 165.858C313.753 167.258 314.915 168.168 316.455 168.168C317.295 168.168 318.205 167.804 318.737 167.132V168H320.403V163.646C320.403 161.812 319.213 160.594 317.295 160.594ZM316.833 166.922C316.021 166.922 315.419 166.488 315.419 165.802C315.419 165.116 316.105 164.64 316.959 164.64C317.603 164.64 318.205 164.738 318.737 164.92V165.732C318.541 166.502 317.659 166.922 316.833 166.922Z" fill="black"/>
<path d="M246.696 179H247.504V175.088L249.432 178.68L251.36 175.088V179H252.168V173.504H251.36L249.432 177.096L247.504 173.504H246.696V179ZM256.299 178.392C255.587 178.392 255.083 177.896 254.979 177.208H258.235C258.235 175.728 257.507 174.768 256.243 174.768C255.099 174.768 254.179 175.68 254.179 176.92C254.179 178.192 255.155 179.096 256.307 179.096C256.891 179.096 257.611 178.848 257.979 178.456L257.483 177.944C257.235 178.2 256.731 178.392 256.299 178.392ZM256.275 175.472C256.987 175.472 257.379 175.936 257.467 176.576H254.987C255.115 175.904 255.635 175.472 256.275 175.472ZM262.049 178.256C261.961 178.344 261.801 178.408 261.625 178.408C261.393 178.408 261.201 178.2 261.201 177.912V175.536H262.177V174.864H261.201V173.728H260.425V174.864H259.801V175.536H260.425V177.968C260.425 178.632 260.873 179.096 261.513 179.096C261.809 179.096 262.113 178.984 262.337 178.8L262.049 178.256ZM264.936 175.656V174.864H264.144V179H264.936V176.648C265.008 175.928 265.616 175.456 266.472 175.456V174.768C265.76 174.768 265.2 175.112 264.936 175.656ZM270.04 179.096C271.216 179.096 272.208 178.104 272.208 176.928C272.208 175.752 271.216 174.768 270.04 174.768C268.856 174.768 267.856 175.752 267.856 176.928C267.856 178.104 268.856 179.096 270.04 179.096ZM270.04 178.408C269.28 178.408 268.648 177.736 268.648 176.928C268.648 176.128 269.28 175.456 270.04 175.456C270.784 175.456 271.416 176.128 271.416 176.928C271.416 177.736 270.784 178.408 270.04 178.408ZM276.391 174.768C275.751 174.768 275.239 175.072 274.919 175.576V174.864H274.135V180.376H274.919V178.28C275.239 178.792 275.751 179.096 276.391 179.096C277.479 179.096 278.295 178.2 278.295 176.928C278.295 175.664 277.479 174.768 276.391 174.768ZM276.199 178.408C275.455 178.408 274.919 177.792 274.919 176.928C274.919 176.064 275.455 175.456 276.199 175.456C276.959 175.456 277.495 176.064 277.495 176.928C277.495 177.792 276.959 178.408 276.199 178.408ZM282.171 179.096C283.347 179.096 284.339 178.104 284.339 176.928C284.339 175.752 283.347 174.768 282.171 174.768C280.987 174.768 279.987 175.752 279.987 176.928C279.987 178.104 280.987 179.096 282.171 179.096ZM282.171 178.408C281.411 178.408 280.779 177.736 280.779 176.928C280.779 176.128 281.411 175.456 282.171 175.456C282.915 175.456 283.547 176.128 283.547 176.928C283.547 177.736 282.915 178.408 282.171 178.408ZM286.226 179H287.01V173.408H286.226V179ZM289.515 174.176C289.771 174.176 289.987 173.952 289.987 173.696C289.987 173.448 289.771 173.224 289.515 173.224C289.243 173.224 289.035 173.448 289.035 173.696C289.035 173.952 289.243 174.176 289.515 174.176ZM289.115 179H289.907V174.864H289.115V179ZM293.509 179.096C294.413 179.096 295.077 178.6 295.077 177.816C295.077 176.992 294.349 176.768 293.669 176.568C292.973 176.352 292.717 176.256 292.717 175.936C292.717 175.624 293.037 175.448 293.445 175.448C293.805 175.448 294.221 175.584 294.621 175.832L294.973 175.248C294.525 174.952 293.981 174.768 293.445 174.768C292.565 174.768 291.933 175.264 291.941 176.024C291.941 176.696 292.413 176.968 293.365 177.232C293.877 177.376 294.301 177.496 294.301 177.88C294.301 178.2 293.981 178.416 293.517 178.416C293.029 178.416 292.557 178.232 292.117 177.912L291.741 178.48C292.237 178.88 292.901 179.096 293.509 179.096ZM246.696 187H249.408C250.392 187 251.096 186.384 251.096 185.504C251.096 184.896 250.728 184.4 250.088 184.088C250.584 183.808 250.872 183.448 250.872 182.872C250.872 182.072 250.224 181.504 249.304 181.504H246.696V187ZM247.504 183.792V182.216H249.104C249.656 182.216 250.048 182.552 250.048 183.008C250.048 183.464 249.656 183.792 249.104 183.792H247.504ZM247.504 186.288V184.48H249.224C249.84 184.48 250.272 184.856 250.272 185.384C250.272 185.912 249.84 186.288 249.224 186.288H247.504ZM253.044 187H253.828V181.408H253.044V187ZM257.677 182.768C257.221 182.768 256.701 182.888 256.109 183.184L256.397 183.768C256.757 183.584 257.157 183.424 257.565 183.424C258.389 183.424 258.629 183.976 258.629 184.496V184.624C258.229 184.488 257.789 184.4 257.381 184.4C256.469 184.4 255.725 184.952 255.725 185.776C255.725 186.584 256.373 187.096 257.253 187.096C257.757 187.096 258.325 186.864 258.629 186.432V187H259.405V184.496C259.405 183.472 258.789 182.768 257.677 182.768ZM257.405 186.472C256.885 186.472 256.485 186.2 256.485 185.752C256.485 185.304 256.949 184.992 257.501 184.992C257.909 184.992 258.293 185.048 258.629 185.152V185.704C258.493 186.216 257.917 186.472 257.405 186.472ZM263.463 187.096C264.079 187.096 264.615 186.84 265.015 186.432L264.479 185.944C264.223 186.232 263.855 186.408 263.471 186.408C262.711 186.408 262.087 185.736 262.087 184.928C262.087 184.128 262.711 183.456 263.463 183.456C263.847 183.456 264.207 183.624 264.455 183.904L264.991 183.408C264.599 183.016 264.063 182.768 263.471 182.768C262.287 182.768 261.287 183.752 261.287 184.928C261.287 186.104 262.287 187.096 263.463 187.096ZM270.582 182.864H269.622L267.598 184.976V181.408H266.814V187H267.598V185.936L268.262 185.264L269.558 187H270.502L268.798 184.736L270.582 182.864Z" fill="black"/>
<path d="M246.696 225H247.504V221.088L249.432 224.68L251.36 221.088V225H252.168V219.504H251.36L249.432 223.096L247.504 219.504H246.696V225ZM256.299 224.392C255.587 224.392 255.083 223.896 254.979 223.208H258.235C258.235 221.728 257.507 220.768 256.243 220.768C255.099 220.768 254.179 221.68 254.179 222.92C254.179 224.192 255.155 225.096 256.307 225.096C256.891 225.096 257.611 224.848 257.979 224.456L257.483 223.944C257.235 224.2 256.731 224.392 256.299 224.392ZM256.275 221.472C256.987 221.472 257.379 221.936 257.467 222.576H254.987C255.115 221.904 255.635 221.472 256.275 221.472ZM262.049 224.256C261.961 224.344 261.801 224.408 261.625 224.408C261.393 224.408 261.201 224.2 261.201 223.912V221.536H262.177V220.864H261.201V219.728H260.425V220.864H259.801V221.536H260.425V223.968C260.425 224.632 260.873 225.096 261.513 225.096C261.809 225.096 262.113 224.984 262.337 224.8L262.049 224.256ZM264.936 221.656V220.864H264.144V225H264.936V222.648C265.008 221.928 265.616 221.456 266.472 221.456V220.768C265.76 220.768 265.2 221.112 264.936 221.656ZM270.04 225.096C271.216 225.096 272.208 224.104 272.208 222.928C272.208 221.752 271.216 220.768 270.04 220.768C268.856 220.768 267.856 221.752 267.856 222.928C267.856 224.104 268.856 225.096 270.04 225.096ZM270.04 224.408C269.28 224.408 268.648 223.736 268.648 222.928C268.648 222.128 269.28 221.456 270.04 221.456C270.784 221.456 271.416 222.128 271.416 222.928C271.416 223.736 270.784 224.408 270.04 224.408ZM276.391 220.768C275.751 220.768 275.239 221.072 274.919 221.576V220.864H274.135V226.376H274.919V224.28C275.239 224.792 275.751 225.096 276.391 225.096C277.479 225.096 278.295 224.2 278.295 222.928C278.295 221.664 277.479 220.768 276.391 220.768ZM276.199 224.408C275.455 224.408 274.919 223.792 274.919 222.928C274.919 222.064 275.455 221.456 276.199 221.456C276.959 221.456 277.495 222.064 277.495 222.928C277.495 223.792 276.959 224.408 276.199 224.408ZM282.171 225.096C283.347 225.096 284.339 224.104 284.339 222.928C284.339 221.752 283.347 220.768 282.171 220.768C280.987 220.768 279.987 221.752 279.987 222.928C279.987 224.104 280.987 225.096 282.171 225.096ZM282.171 224.408C281.411 224.408 280.779 223.736 280.779 222.928C280.779 222.128 281.411 221.456 282.171 221.456C282.915 221.456 283.547 222.128 283.547 222.928C283.547 223.736 282.915 224.408 282.171 224.408ZM286.226 225H287.01V219.408H286.226V225ZM289.515 220.176C289.771 220.176 289.987 219.952 289.987 219.696C289.987 219.448 289.771 219.224 289.515 219.224C289.243 219.224 289.035 219.448 289.035 219.696C289.035 219.952 289.243 220.176 289.515 220.176ZM289.115 225H289.907V220.864H289.115V225ZM293.509 225.096C294.413 225.096 295.077 224.6 295.077 223.816C295.077 222.992 294.349 222.768 293.669 222.568C292.973 222.352 292.717 222.256 292.717 221.936C292.717 221.624 293.037 221.448 293.445 221.448C293.805 221.448 294.221 221.584 294.621 221.832L294.973 221.248C294.525 220.952 293.981 220.768 293.445 220.768C292.565 220.768 291.933 221.264 291.941 222.024C291.941 222.696 292.413 222.968 293.365 223.232C293.877 223.376 294.301 223.496 294.301 223.88C294.301 224.2 293.981 224.416 293.517 224.416C293.029 224.416 292.557 224.232 292.117 223.912L291.741 224.48C292.237 224.88 292.901 225.096 293.509 225.096ZM246.696 233H247.504V229.088L249.432 232.68L251.36 229.088V233H252.168V227.504H251.36L249.432 231.096L247.504 227.504H246.696V233ZM256.299 232.392C255.587 232.392 255.083 231.896 254.979 231.208H258.235C258.235 229.728 257.507 228.768 256.243 228.768C255.099 228.768 254.179 229.68 254.179 230.92C254.179 232.192 255.155 233.096 256.307 233.096C256.891 233.096 257.611 232.848 257.979 232.456L257.483 231.944C257.235 232.2 256.731 232.392 256.299 232.392ZM256.275 229.472C256.987 229.472 257.379 229.936 257.467 230.576H254.987C255.115 229.904 255.635 229.472 256.275 229.472ZM263.297 227.408V229.576C262.977 229.072 262.465 228.768 261.825 228.768C260.737 228.768 259.921 229.664 259.921 230.928C259.921 232.2 260.737 233.096 261.825 233.096C262.465 233.096 262.977 232.792 263.297 232.28V233H264.081V227.408H263.297ZM262.017 232.408C261.257 232.408 260.721 231.792 260.721 230.928C260.721 230.064 261.257 229.456 262.017 229.456C262.761 229.456 263.297 230.064 263.297 230.928C263.297 231.792 262.761 232.408 262.017 232.408ZM266.621 228.176C266.877 228.176 267.093 227.952 267.093 227.696C267.093 227.448 266.877 227.224 266.621 227.224C266.349 227.224 266.141 227.448 266.141 227.696C266.141 227.952 266.349 228.176 266.621 228.176ZM266.221 233H267.013V228.864H266.221V233ZM271.967 228.864V231.544C271.903 232.032 271.407 232.408 270.831 232.408C270.271 232.408 269.879 231.976 269.879 231.36V228.864H269.103V231.496C269.103 232.432 269.743 233.096 270.655 233.096C271.215 233.096 271.719 232.808 271.967 232.4V233H272.759V228.864H271.967ZM279.492 228.768C278.868 228.768 278.34 229.088 278.148 229.6C277.908 229.088 277.42 228.768 276.82 228.768C276.292 228.768 275.86 229.032 275.652 229.44V228.864H274.86V233H275.652V230.416C275.652 229.848 276.068 229.456 276.66 229.456C277.18 229.456 277.54 229.88 277.54 230.488V233H278.316V230.416C278.316 229.848 278.732 229.456 279.324 229.456C279.844 229.456 280.204 229.88 280.204 230.488V233H280.98V230.368C280.98 229.432 280.356 228.768 279.492 228.768Z" fill="black"/>
<path d="M301.696 179H302.504V175.088L304.432 178.68L306.36 175.088V179H307.168V173.504H306.36L304.432 177.096L302.504 173.504H301.696V179ZM311.299 178.392C310.587 178.392 310.083 177.896 309.979 177.208H313.235C313.235 175.728 312.507 174.768 311.243 174.768C310.099 174.768 309.179 175.68 309.179 176.92C309.179 178.192 310.155 179.096 311.307 179.096C311.891 179.096 312.611 178.848 312.979 178.456L312.483 177.944C312.235 178.2 311.731 178.392 311.299 178.392ZM311.275 175.472C311.987 175.472 312.379 175.936 312.467 176.576H309.987C310.115 175.904 310.635 175.472 311.275 175.472ZM317.049 178.256C316.961 178.344 316.801 178.408 316.625 178.408C316.393 178.408 316.201 178.2 316.201 177.912V175.536H317.177V174.864H316.201V173.728H315.425V174.864H314.801V175.536H315.425V177.968C315.425 178.632 315.873 179.096 316.513 179.096C316.809 179.096 317.113 178.984 317.337 178.8L317.049 178.256ZM319.936 175.656V174.864H319.144V179H319.936V176.648C320.008 175.928 320.616 175.456 321.472 175.456V174.768C320.76 174.768 320.2 175.112 319.936 175.656ZM325.04 179.096C326.216 179.096 327.208 178.104 327.208 176.928C327.208 175.752 326.216 174.768 325.04 174.768C323.856 174.768 322.856 175.752 322.856 176.928C322.856 178.104 323.856 179.096 325.04 179.096ZM325.04 178.408C324.28 178.408 323.648 177.736 323.648 176.928C323.648 176.128 324.28 175.456 325.04 175.456C325.784 175.456 326.416 176.128 326.416 176.928C326.416 177.736 325.784 178.408 325.04 178.408ZM331.391 174.768C330.751 174.768 330.239 175.072 329.919 175.576V174.864H329.135V180.376H329.919V178.28C330.239 178.792 330.751 179.096 331.391 179.096C332.479 179.096 333.295 178.2 333.295 176.928C333.295 175.664 332.479 174.768 331.391 174.768ZM331.199 178.408C330.455 178.408 329.919 177.792 329.919 176.928C329.919 176.064 330.455 175.456 331.199 175.456C331.959 175.456 332.495 176.064 332.495 176.928C332.495 177.792 331.959 178.408 331.199 178.408ZM337.171 179.096C338.347 179.096 339.339 178.104 339.339 176.928C339.339 175.752 338.347 174.768 337.171 174.768C335.987 174.768 334.987 175.752 334.987 176.928C334.987 178.104 335.987 179.096 337.171 179.096ZM337.171 178.408C336.411 178.408 335.779 177.736 335.779 176.928C335.779 176.128 336.411 175.456 337.171 175.456C337.915 175.456 338.547 176.128 338.547 176.928C338.547 177.736 337.915 178.408 337.171 178.408ZM341.226 179H342.01V173.408H341.226V179ZM344.515 174.176C344.771 174.176 344.987 173.952 344.987 173.696C344.987 173.448 344.771 173.224 344.515 173.224C344.243 173.224 344.035 173.448 344.035 173.696C344.035 173.952 344.243 174.176 344.515 174.176ZM344.115 179H344.907V174.864H344.115V179ZM348.509 179.096C349.413 179.096 350.077 178.6 350.077 177.816C350.077 176.992 349.349 176.768 348.669 176.568C347.973 176.352 347.717 176.256 347.717 175.936C347.717 175.624 348.037 175.448 348.445 175.448C348.805 175.448 349.221 175.584 349.621 175.832L349.973 175.248C349.525 174.952 348.981 174.768 348.445 174.768C347.565 174.768 346.933 175.264 346.941 176.024C346.941 176.696 347.413 176.968 348.365 177.232C348.877 177.376 349.301 177.496 349.301 177.88C349.301 178.2 348.981 178.416 348.517 178.416C348.029 178.416 347.557 178.232 347.117 177.912L346.741 178.48C347.237 178.88 347.901 179.096 348.509 179.096ZM303.568 187.088C304.864 187.088 305.568 186.384 305.568 185.456C305.568 184.472 304.808 184.104 303.712 183.848C302.808 183.632 302.336 183.456 302.336 182.944C302.336 182.504 302.768 182.112 303.384 182.112C303.944 182.112 304.496 182.36 304.96 182.784L305.424 182.176C304.896 181.712 304.264 181.4 303.416 181.4C302.312 181.4 301.512 182.096 301.512 183.016C301.512 184.008 302.256 184.344 303.376 184.608C304.296 184.816 304.752 185.016 304.752 185.536C304.752 185.976 304.36 186.376 303.6 186.376C302.856 186.376 302.28 186.072 301.792 185.608L301.304 186.208C301.888 186.768 302.648 187.088 303.568 187.088ZM309.393 186.392C308.681 186.392 308.177 185.896 308.073 185.208H311.329C311.329 183.728 310.601 182.768 309.337 182.768C308.193 182.768 307.273 183.68 307.273 184.92C307.273 186.192 308.249 187.096 309.401 187.096C309.985 187.096 310.705 186.848 311.073 186.456L310.577 185.944C310.329 186.2 309.825 186.392 309.393 186.392ZM309.369 183.472C310.081 183.472 310.473 183.936 310.561 184.576H308.081C308.209 183.904 308.729 183.472 309.369 183.472ZM317.831 182.768C317.207 182.768 316.679 183.088 316.487 183.6C316.247 183.088 315.759 182.768 315.159 182.768C314.631 182.768 314.199 183.032 313.991 183.44V182.864H313.199V187H313.991V184.416C313.991 183.848 314.407 183.456 314.999 183.456C315.519 183.456 315.879 183.88 315.879 184.488V187H316.655V184.416C316.655 183.848 317.071 183.456 317.663 183.456C318.183 183.456 318.543 183.88 318.543 184.488V187H319.319V184.368C319.319 183.432 318.695 182.768 317.831 182.768ZM321.809 182.176C322.065 182.176 322.281 181.952 322.281 181.696C322.281 181.448 322.065 181.224 321.809 181.224C321.537 181.224 321.329 181.448 321.329 181.696C321.329 181.952 321.537 182.176 321.809 182.176ZM321.409 187H322.201V182.864H321.409V187ZM324.147 185.176H326.259V184.456H324.147V185.176ZM328.34 187H331.052C332.036 187 332.74 186.384 332.74 185.504C332.74 184.896 332.372 184.4 331.732 184.088C332.228 183.808 332.516 183.448 332.516 182.872C332.516 182.072 331.868 181.504 330.948 181.504H328.34V187ZM329.148 183.792V182.216H330.748C331.3 182.216 331.692 182.552 331.692 183.008C331.692 183.464 331.3 183.792 330.748 183.792H329.148ZM329.148 186.288V184.48H330.868C331.484 184.48 331.916 184.856 331.916 185.384C331.916 185.912 331.484 186.288 330.868 186.288H329.148ZM336.648 187.096C337.824 187.096 338.816 186.104 338.816 184.928C338.816 183.752 337.824 182.768 336.648 182.768C335.464 182.768 334.464 183.752 334.464 184.928C334.464 186.104 335.464 187.096 336.648 187.096ZM336.648 186.408C335.888 186.408 335.256 185.736 335.256 184.928C335.256 184.128 335.888 183.456 336.648 183.456C337.392 183.456 338.024 184.128 338.024 184.928C338.024 185.736 337.392 186.408 336.648 186.408ZM340.702 187H341.486V181.408H340.702V187ZM346.784 181.408V183.576C346.464 183.072 345.952 182.768 345.312 182.768C344.224 182.768 343.408 183.664 343.408 184.928C343.408 186.2 344.224 187.096 345.312 187.096C345.952 187.096 346.464 186.792 346.784 186.28V187H347.568V181.408H346.784ZM345.504 186.408C344.744 186.408 344.208 185.792 344.208 184.928C344.208 184.064 344.744 183.456 345.504 183.456C346.248 183.456 346.784 184.064 346.784 184.928C346.784 185.792 346.248 186.408 345.504 186.408Z" fill="black"/>
</svg>
